<svg width="1017" height="576" viewBox="0 0 1017 576" fill="none" xmlns="http://www.w3.org/2000/svg">
<circle cx="392" cy="226" r="226" fill="#FB1717"/>
<path d="M557.913 72.5435C598.551 116.48 620.102 174.741 617.838 234.547C615.575 294.352 589.682 350.818 545.84 391.557C501.998 432.296 443.787 453.982 383.976 451.858C324.166 449.733 267.64 423.971 226.8 380.223C185.959 336.476 164.138 278.315 166.124 218.5C168.111 158.684 193.742 102.099 237.395 61.1572C281.047 20.2153 339.158 -1.73998 398.977 0.107733C458.797 1.95545 515.441 27.4553 556.484 71.0132L392 226L557.913 72.5435Z" fill="url(#paint0_linear_2_18)"/>
<path d="M306.266 307.964H311.623V310.643H316.98V305.286H308.944V302.607H306.266V289.214H322.337V294.571H311.623V299.929H319.658V302.607H322.337V313.321H319.658V316H308.944V313.321H306.266V307.964ZM326.516 310.643H331.873V316H326.516V310.643ZM336.072 307.964H341.429V310.643H349.465V305.286H341.429V299.929H349.465V294.571H341.429V297.25H336.072V291.893H338.751V289.214H352.144V291.893H354.822V299.929H352.144V305.286H354.822V313.321H352.144V316H338.751V313.321H336.072V307.964ZM384.594 294.571H376.558V299.929H384.594V294.571ZM376.558 310.643H384.594V305.286H376.558V310.643ZM387.273 302.607H389.951V313.321H387.273V316H371.201V289.214H387.273V291.893H389.951V299.929H387.273V302.607ZM394.137 289.214H399.494V294.571H394.137V289.214ZM394.137 297.25H399.494V316H394.137V297.25ZM403.693 289.214H409.051V316H403.693V289.214ZM413.25 289.214H418.607V316H413.25V289.214ZM422.807 289.214H428.164V294.571H422.807V289.214ZM422.807 297.25H428.164V316H422.807V297.25ZM432.363 297.25H435.042V294.571H448.435V297.25H451.113V313.321H448.435V316H435.042V313.321H432.363V297.25ZM445.756 299.929H437.72V310.643H445.756V299.929ZM460.656 297.25H463.335V294.571H471.37V297.25H474.049V316H468.692V299.929H460.656V316H455.299V294.571H460.656V297.25ZM291.579 348.571H286.222V343.214H302.293V348.571H296.936V370H291.579V348.571ZM306.472 351.25H309.15V348.571H322.543V351.25H325.222V367.321H322.543V370H309.15V367.321H306.472V351.25ZM319.865 353.929H311.829V364.643H319.865V353.929ZM329.407 351.25H332.086V345.893H334.764V343.214H337.443V351.25H342.8V356.607H337.443V364.643H342.8V370H334.764V367.321H332.086V356.607H329.407V351.25ZM349.65 367.321H346.972V359.286H349.65V356.607H360.365V353.929H346.972V351.25H349.65V348.571H363.043V351.25H365.722V370H360.365V367.321H357.686V370H349.65V367.321ZM352.329 364.643H360.365V361.964H352.329V364.643ZM369.907 343.214H375.264V370H369.907V343.214ZM402.372 361.964H405.05V343.214H410.407V367.321H407.729V370H394.336V367.321H391.657V343.214H397.014V361.964H399.693V364.643H402.372V361.964ZM417.271 367.321H414.593V364.643H425.307V361.964H417.271V359.286H414.593V351.25H417.271V348.571H427.986V351.25H430.664V353.929H419.95V356.607H427.986V359.286H430.664V367.321H427.986V370H417.271V367.321ZM434.843 351.25H437.521V348.571H450.914V351.25H453.593V361.964H440.2V364.643H453.593V367.321H450.914V370H437.521V367.321H434.843V351.25ZM440.2 356.607H448.236V353.929H440.2V356.607ZM468.493 353.929H465.814V356.607H463.135V370H457.778V348.571H463.135V351.25H465.814V348.571H471.171V351.25H473.85V353.929H471.171V356.607H468.493V353.929ZM480.707 367.321H478.028V364.643H488.743V361.964H480.707V359.286H478.028V351.25H480.707V348.571H491.421V351.25H494.1V353.929H483.385V356.607H491.421V359.286H494.1V367.321H491.421V370H480.707V367.321Z" fill="#F0F3F4"/>
<path d="M729.445 19.7143H731.588V17.5714H742.302V19.7143H744.445V36.8571H742.302V39H731.588V36.8571H729.445V19.7143ZM738.017 32.5714H740.16V24H738.017V21.8571H735.874V24H733.731V32.5714H735.874V34.7143H738.017V32.5714ZM752.079 24H754.222V21.8571H760.651V24H762.794V39H758.508V26.1429H752.079V39H747.794V21.8571H752.079V24ZM766.142 17.5714H770.428V39H766.142V17.5714ZM773.787 39H775.93V36.8571H778.073V34.7143H775.93V32.5714H773.787V21.8571H778.073V30.4286H780.216V32.5714H782.359V21.8571H786.645V34.7143H784.502V36.8571H782.359V39H780.216V41.1429H778.073V43.2857H773.787V39ZM799.742 19.7143H801.885V17.5714H810.456V19.7143H812.599V36.8571H810.456V39H801.885V36.8571H799.742V19.7143ZM808.314 21.8571H804.028V34.7143H808.314V21.8571ZM815.942 34.7143H820.228V39H815.942V34.7143ZM823.588 17.5714H830.016V39H825.73V21.8571H823.588V17.5714ZM845.24 34.7143H847.383V32.5714H849.525V30.4286H851.668V28.2857H853.811V26.1429H855.954V24H858.097V21.8571H860.24V19.7143H862.383V17.5714H864.525V21.8571H862.383V24H860.24V26.1429H858.097V28.2857H855.954V30.4286H853.811V32.5714H851.668V34.7143H849.525V36.8571H847.383V39H845.24V34.7143ZM843.097 21.8571H845.24V19.7143H847.383V17.5714H849.525V19.7143H851.668V21.8571H853.811V24H851.668V26.1429H849.525V28.2857H847.383V26.1429H845.24V24H843.097V21.8571ZM860.24 34.7143H862.383V32.5714H860.24V34.7143ZM849.525 24V21.8571H847.383V24H849.525ZM855.954 32.5714H858.097V30.4286H860.24V28.2857H862.383V30.4286H864.525V32.5714H866.668V34.7143H864.525V36.8571H862.383V39H860.24V36.8571H858.097V34.7143H855.954V32.5714ZM700.355 65.5714H713.212V67.7143H715.355V78.4286H713.212V80.5714H704.64V87H700.355V65.5714ZM711.069 69.8571H704.64V76.2857H711.069V69.8571ZM720.846 84.8571H718.703V78.4286H720.846V76.2857H729.417V74.1429H718.703V72H720.846V69.8571H731.56V72H733.703V87H729.417V84.8571H727.275V87H720.846V84.8571ZM722.989 82.7143H729.417V80.5714H722.989V82.7143ZM737.052 65.5714H741.337V69.8571H737.052V65.5714ZM737.052 72H741.337V87H737.052V72ZM755.411 69.8571V65.5714H759.697V87H755.411V84.8571H753.268V87H746.84V84.8571H744.697V72H746.84V69.8571H755.411ZM755.411 82.7143V74.1429H748.983V82.7143H755.411ZM783.514 80.5714H787.8V84.8571H785.657V87H774.943V84.8571H772.8V67.7143H774.943V65.5714H785.657V67.7143H787.8V72H783.514V69.8571H779.229V72H777.086V80.5714H779.229V82.7143H783.514V80.5714ZM799.72 74.1429H797.577V76.2857H795.434V87H791.148V69.8571H795.434V72H797.577V69.8571H801.863V72H804.006V74.1429H801.863V76.2857H799.72V74.1429ZM807.348 72H809.491V69.8571H820.206V72H822.348V80.5714H811.634V82.7143H822.348V84.8571H820.206V87H809.491V84.8571H807.348V72ZM811.634 76.2857H818.063V74.1429H811.634V76.2857ZM827.84 84.8571H825.697V78.4286H827.84V76.2857H836.411V74.1429H825.697V72H827.84V69.8571H838.554V72H840.697V87H836.411V84.8571H834.268V87H827.84V84.8571ZM829.983 82.7143H836.411V80.5714H829.983V82.7143ZM844.045 72H846.188V67.7143H848.331V65.5714H850.474V72H854.76V76.2857H850.474V82.7143H854.76V87H848.331V84.8571H846.188V76.2857H844.045V72ZM858.097 72H860.24V69.8571H870.954V72H873.097V84.8571H870.954V87H860.24V84.8571H858.097V72ZM868.811 74.1429H862.383V82.7143H868.811V74.1429ZM885.017 74.1429H882.874V76.2857H880.731V87H876.445V69.8571H880.731V72H882.874V69.8571H887.16V72H889.302V74.1429H887.16V76.2857H885.017V74.1429ZM894.788 84.8571H892.645V82.7143H901.217V80.5714H894.788V78.4286H892.645V72H894.788V69.8571H903.36V72H905.502V74.1429H896.931V76.2857H903.36V78.4286H905.502V84.8571H903.36V87H894.788V84.8571Z" fill="#F0F3F4"/>
<line x1="555.659" y1="73.3073" x2="602.458" y2="29.6343" stroke="#FB1717"/>
<rect x="0.5" y="538.5" width="24" height="24" rx="3.5" fill="url(#paint1_linear_2_18)" stroke="#F0F3F4"/>
<rect x="490.5" y="538.5" width="24" height="24" rx="3.5" fill="url(#paint2_linear_2_18)" stroke="#F0F3F4"/>
<path d="M51 539.893H53.4107V542.304H51V539.893ZM53.4107 539.893H55.8214V542.304H53.4107V539.893ZM53.4107 542.304H55.8214V544.714H53.4107V542.304ZM53.4107 544.714H55.8214V547.125H53.4107V544.714ZM53.4107 547.125H55.8214V549.536H53.4107V547.125ZM51 547.125H53.4107V549.536H51V547.125ZM51 544.714H53.4107V547.125H51V544.714ZM51 542.304H53.4107V544.714H51V542.304ZM51 549.536H53.4107V551.946H51V549.536ZM51 551.946H53.4107V554.357H51V551.946ZM51 554.357H53.4107V556.768H51V554.357ZM53.4107 551.946H55.8214V554.357H53.4107V551.946ZM53.4107 549.536H55.8214V551.946H53.4107V549.536ZM53.4107 554.357H55.8214V556.768H53.4107V554.357ZM53.4107 556.768H55.8214V559.179H53.4107V556.768ZM51 559.179H53.4107V561.589H51V559.179ZM51 556.768H53.4107V559.179H51V556.768ZM51 561.589H53.4107V564H51V561.589ZM53.4107 561.589H55.8214V564H53.4107V561.589ZM53.4107 559.179H55.8214V561.589H53.4107V559.179ZM55.8214 539.893H58.2321V542.304H55.8214V539.893ZM58.2321 539.893H60.6429V542.304H58.2321V539.893ZM60.6429 539.893H63.0536V542.304H60.6429V539.893ZM63.0536 539.893H65.4643V542.304H63.0536V539.893ZM60.6429 542.304H63.0536V544.714H60.6429V542.304ZM58.2321 542.304H60.6429V544.714H58.2321V542.304ZM55.8214 542.304H58.2321V544.714H55.8214V542.304ZM55.8214 551.946H58.2321V554.357H55.8214V551.946ZM58.2321 549.536H60.6429V551.946H58.2321V549.536ZM55.8214 549.536H58.2321V551.946H55.8214V549.536ZM58.2321 551.946H60.6429V554.357H58.2321V551.946ZM63.0536 542.304H65.4643V544.714H63.0536V542.304ZM60.6429 549.536H63.0536V551.946H60.6429V549.536ZM60.6429 551.946H63.0536V554.357H60.6429V551.946ZM69.225 539.893H71.6357V542.304H69.225V539.893ZM71.6357 539.893H74.0464V542.304H71.6357V539.893ZM71.6357 542.304H74.0464V544.714H71.6357V542.304ZM71.6357 544.714H74.0464V547.125H71.6357V544.714ZM69.225 544.714H71.6357V547.125H69.225V544.714ZM69.225 542.304H71.6357V544.714H69.225V542.304ZM69.225 547.125H71.6357V549.536H69.225V547.125ZM69.225 549.536H71.6357V551.946H69.225V549.536ZM71.6357 549.536H74.0464V551.946H71.6357V549.536ZM71.6357 547.125H74.0464V549.536H71.6357V547.125ZM71.6357 551.946H74.0464V554.357H71.6357V551.946ZM74.0464 551.946H76.4571V554.357H74.0464V551.946ZM74.0464 549.536H76.4571V551.946H74.0464V549.536ZM74.0464 554.357H76.4571V556.768H74.0464V554.357ZM76.4571 554.357H78.8679V556.768H76.4571V554.357ZM76.4571 551.946H78.8679V554.357H76.4571V551.946ZM78.8679 551.946H81.2786V554.357H78.8679V551.946ZM78.8679 554.357H81.2786V556.768H78.8679V554.357ZM81.2786 554.357H83.6893V556.768H81.2786V554.357ZM81.2786 551.946H83.6893V554.357H81.2786V551.946ZM81.2786 549.536H83.6893V551.946H81.2786V549.536ZM83.6893 549.536H86.1V551.946H83.6893V549.536ZM83.6893 551.946H86.1V554.357H83.6893V551.946ZM83.6893 547.125H86.1V549.536H83.6893V547.125ZM83.6893 544.714H86.1V547.125H83.6893V544.714ZM83.6893 542.304H86.1V544.714H83.6893V542.304ZM83.6893 539.893H86.1V542.304H83.6893V539.893ZM86.1 539.893H88.5107V542.304H86.1V539.893ZM86.1 542.304H88.5107V544.714H86.1V542.304ZM86.1 544.714H88.5107V547.125H86.1V544.714ZM86.1 547.125H88.5107V549.536H86.1V547.125ZM86.1 549.536H88.5107V551.946H86.1V549.536ZM76.4571 556.768H78.8679V559.179H76.4571V556.768ZM76.4571 559.179H78.8679V561.589H76.4571V559.179ZM76.4571 561.589H78.8679V564H76.4571V561.589ZM78.8679 561.589H81.2786V564H78.8679V561.589ZM78.8679 559.179H81.2786V561.589H78.8679V559.179ZM78.8679 556.768H81.2786V559.179H78.8679V556.768ZM98.424 542.304H100.835V544.714H98.424V542.304ZM98.424 544.714H100.835V547.125H98.424V544.714ZM100.835 544.714H103.245V547.125H100.835V544.714ZM100.835 542.304H103.245V544.714H100.835V542.304ZM100.835 539.893H103.245V542.304H100.835V539.893ZM103.245 539.893H105.656V542.304H103.245V539.893ZM105.656 539.893H108.067V542.304H105.656V539.893ZM108.067 539.893H110.478V542.304H108.067V539.893ZM110.478 539.893H112.888V542.304H110.478V539.893ZM110.478 542.304H112.888V544.714H110.478V542.304ZM108.067 542.304H110.478V544.714H108.067V542.304ZM105.656 542.304H108.067V544.714H105.656V542.304ZM103.245 542.304H105.656V544.714H103.245V542.304ZM110.478 544.714H112.888V547.125H110.478V544.714ZM112.888 544.714H115.299V547.125H112.888V544.714ZM112.888 542.304H115.299V544.714H112.888V542.304ZM112.888 547.125H115.299V549.536H112.888V547.125ZM110.478 547.125H112.888V549.536H110.478V547.125ZM108.067 547.125H110.478V549.536H108.067V547.125ZM108.067 549.536H110.478V551.946H108.067V549.536ZM110.478 549.536H112.888V551.946H110.478V549.536ZM105.656 549.536H108.067V551.946H105.656V549.536ZM105.656 551.946H108.067V554.357H105.656V551.946ZM108.067 551.946H110.478V554.357H108.067V551.946ZM103.245 551.946H105.656V554.357H103.245V551.946ZM103.245 554.357H105.656V556.768H103.245V554.357ZM105.656 554.357H108.067V556.768H105.656V554.357ZM100.835 554.357H103.245V556.768H100.835V554.357ZM100.835 556.768H103.245V559.179H100.835V556.768ZM103.245 556.768H105.656V559.179H103.245V556.768ZM98.424 556.768H100.835V559.179H98.424V556.768ZM98.424 559.179H100.835V561.589H98.424V559.179ZM98.424 561.589H100.835V564H98.424V561.589ZM100.835 561.589H103.245V564H100.835V561.589ZM100.835 559.179H103.245V561.589H100.835V559.179ZM103.245 559.179H105.656V561.589H103.245V559.179ZM105.656 559.179H108.067V561.589H105.656V559.179ZM105.656 561.589H108.067V564H105.656V561.589ZM108.067 561.589H110.478V564H108.067V561.589ZM110.478 561.589H112.888V564H110.478V561.589ZM112.888 561.589H115.299V564H112.888V561.589ZM112.888 559.179H115.299V561.589H112.888V559.179ZM110.478 559.179H112.888V561.589H110.478V559.179ZM108.067 559.179H110.478V561.589H108.067V559.179ZM103.245 561.589H105.656V564H103.245V561.589ZM123.887 539.893H126.298V542.304H123.887V539.893ZM121.477 539.893H123.887V542.304H121.477V539.893ZM121.477 542.304H123.887V544.714H121.477V542.304ZM123.887 542.304H126.298V544.714H123.887V542.304ZM126.298 542.304H128.709V544.714H126.298V542.304ZM126.298 539.893H128.709V542.304H126.298V539.893ZM128.709 539.893H131.12V542.304H128.709V539.893ZM131.12 542.304H133.53V544.714H131.12V542.304ZM128.709 542.304H131.12V544.714H128.709V542.304ZM131.12 544.714H133.53V547.125H131.12V544.714ZM131.12 559.179H133.53V561.589H131.12V559.179ZM131.12 556.768H133.53V559.179H131.12V556.768ZM131.12 554.357H133.53V556.768H131.12V554.357ZM131.12 551.946H133.53V554.357H131.12V551.946ZM131.12 549.536H133.53V551.946H131.12V549.536ZM131.12 547.125H133.53V549.536H131.12V547.125ZM128.709 559.179H131.12V561.589H128.709V559.179ZM128.709 561.589H131.12V564H128.709V561.589ZM126.298 561.589H128.709V564H126.298V561.589ZM126.298 559.179H128.709V561.589H126.298V559.179ZM123.887 561.589H126.298V564H123.887V561.589ZM121.477 561.589H123.887V564H121.477V561.589ZM121.477 559.179H123.887V561.589H121.477V559.179ZM123.887 559.179H126.298V561.589H123.887V559.179ZM121.477 556.768H123.887V559.179H121.477V556.768ZM119.066 559.179H121.477V561.589H119.066V559.179ZM119.066 556.768H121.477V559.179H119.066V556.768ZM119.066 554.357H121.477V556.768H119.066V554.357ZM119.066 551.946H121.477V554.357H119.066V551.946ZM119.066 549.536H121.477V551.946H119.066V549.536ZM119.066 547.125H121.477V549.536H119.066V547.125ZM119.066 544.714H121.477V547.125H119.066V544.714ZM121.477 544.714H123.887V547.125H121.477V544.714ZM119.066 542.304H121.477V544.714H119.066V542.304ZM121.477 547.125H123.887V549.536H121.477V547.125ZM121.477 549.536H123.887V551.946H121.477V549.536ZM121.477 551.946H123.887V554.357H121.477V551.946ZM121.477 554.357H123.887V556.768H121.477V554.357ZM128.709 544.714H131.12V547.125H128.709V544.714ZM128.709 547.125H131.12V549.536H128.709V547.125ZM128.709 549.536H131.12V551.946H128.709V549.536ZM128.709 551.946H131.12V554.357H128.709V551.946ZM128.709 554.357H131.12V556.768H128.709V554.357ZM128.709 556.768H131.12V559.179H128.709V556.768ZM137.291 542.304H139.702V544.714H137.291V542.304ZM137.291 544.714H139.702V547.125H137.291V544.714ZM139.702 544.714H142.112V547.125H139.702V544.714ZM139.702 542.304H142.112V544.714H139.702V542.304ZM139.702 539.893H142.112V542.304H139.702V539.893ZM142.112 539.893H144.523V542.304H142.112V539.893ZM144.523 539.893H146.934V542.304H144.523V539.893ZM146.934 539.893H149.345V542.304H146.934V539.893ZM149.345 539.893H151.755V542.304H149.345V539.893ZM149.345 542.304H151.755V544.714H149.345V542.304ZM146.934 542.304H149.345V544.714H146.934V542.304ZM144.523 542.304H146.934V544.714H144.523V542.304ZM142.112 542.304H144.523V544.714H142.112V542.304ZM149.345 544.714H151.755V547.125H149.345V544.714ZM151.755 544.714H154.166V547.125H151.755V544.714ZM151.755 542.304H154.166V544.714H151.755V542.304ZM151.755 547.125H154.166V549.536H151.755V547.125ZM149.345 547.125H151.755V549.536H149.345V547.125ZM146.934 547.125H149.345V549.536H146.934V547.125ZM146.934 549.536H149.345V551.946H146.934V549.536ZM149.345 549.536H151.755V551.946H149.345V549.536ZM144.523 549.536H146.934V551.946H144.523V549.536ZM144.523 551.946H146.934V554.357H144.523V551.946ZM146.934 551.946H149.345V554.357H146.934V551.946ZM142.112 551.946H144.523V554.357H142.112V551.946ZM142.112 554.357H144.523V556.768H142.112V554.357ZM144.523 554.357H146.934V556.768H144.523V554.357ZM139.702 554.357H142.112V556.768H139.702V554.357ZM139.702 556.768H142.112V559.179H139.702V556.768ZM142.112 556.768H144.523V559.179H142.112V556.768ZM137.291 556.768H139.702V559.179H137.291V556.768ZM137.291 559.179H139.702V561.589H137.291V559.179ZM137.291 561.589H139.702V564H137.291V561.589ZM139.702 561.589H142.112V564H139.702V561.589ZM139.702 559.179H142.112V561.589H139.702V559.179ZM142.112 559.179H144.523V561.589H142.112V559.179ZM144.523 559.179H146.934V561.589H144.523V559.179ZM144.523 561.589H146.934V564H144.523V561.589ZM146.934 561.589H149.345V564H146.934V561.589ZM149.345 561.589H151.755V564H149.345V561.589ZM151.755 561.589H154.166V564H151.755V561.589ZM151.755 559.179H154.166V561.589H151.755V559.179ZM149.345 559.179H151.755V561.589H149.345V559.179ZM146.934 559.179H149.345V561.589H146.934V559.179ZM142.112 561.589H144.523V564H142.112V561.589ZM169.987 561.589H172.397V564H169.987V561.589ZM167.576 559.179H169.987V561.589H167.576V559.179ZM167.576 561.589H169.987V564H167.576V561.589ZM169.987 559.179H172.397V561.589H169.987V559.179ZM169.987 556.768H172.397V559.179H169.987V556.768ZM167.576 556.768H169.987V559.179H167.576V556.768ZM165.165 556.768H167.576V559.179H165.165V556.768ZM162.754 556.768H165.165V559.179H162.754V556.768ZM160.344 556.768H162.754V559.179H160.344V556.768ZM157.933 556.768H160.344V559.179H157.933V556.768ZM157.933 554.357H160.344V556.768H157.933V554.357ZM160.344 554.357H162.754V556.768H160.344V554.357ZM162.754 554.357H165.165V556.768H162.754V554.357ZM165.165 554.357H167.576V556.768H165.165V554.357ZM167.576 554.357H169.987V556.768H167.576V554.357ZM169.987 554.357H172.397V556.768H169.987V554.357ZM169.987 551.946H172.397V554.357H169.987V551.946ZM169.987 549.536H172.397V551.946H169.987V549.536ZM167.576 549.536H169.987V551.946H167.576V549.536ZM167.576 551.946H169.987V554.357H167.576V551.946ZM169.987 539.893H172.397V542.304H169.987V539.893ZM167.576 539.893H169.987V542.304H167.576V539.893ZM167.576 542.304H169.987V544.714H167.576V542.304ZM167.576 544.714H169.987V547.125H167.576V544.714ZM167.576 547.125H169.987V549.536H167.576V547.125ZM169.987 547.125H172.397V549.536H169.987V547.125ZM169.987 544.714H172.397V547.125H169.987V544.714ZM169.987 542.304H172.397V544.714H169.987V542.304ZM165.165 542.304H167.576V544.714H165.165V542.304ZM165.165 544.714H167.576V547.125H165.165V544.714ZM162.754 544.714H165.165V547.125H162.754V544.714ZM162.754 547.125H165.165V549.536H162.754V547.125ZM160.344 549.536H162.754V551.946H160.344V549.536ZM160.344 547.125H162.754V549.536H160.344V547.125ZM160.344 551.946H162.754V554.357H160.344V551.946ZM157.933 551.946H160.344V554.357H157.933V551.946ZM157.933 549.536H160.344V551.946H157.933V549.536ZM187.132 539.893H189.543V542.304H187.132V539.893ZM189.543 539.893H191.953V542.304H189.543V539.893ZM191.953 539.893H194.364V542.304H191.953V539.893ZM194.364 539.893H196.775V542.304H194.364V539.893ZM196.775 539.893H199.186V542.304H196.775V539.893ZM199.186 539.893H201.596V542.304H199.186V539.893ZM199.186 542.304H201.596V544.714H199.186V542.304ZM196.775 542.304H199.186V544.714H196.775V542.304ZM194.364 542.304H196.775V544.714H194.364V542.304ZM191.953 542.304H194.364V544.714H191.953V542.304ZM189.543 542.304H191.953V544.714H189.543V542.304ZM187.132 542.304H189.543V544.714H187.132V542.304ZM191.953 544.714H194.364V547.125H191.953V544.714ZM191.953 547.125H194.364V549.536H191.953V547.125ZM191.953 549.536H194.364V551.946H191.953V549.536ZM191.953 551.946H194.364V554.357H191.953V551.946ZM191.953 554.357H194.364V556.768H191.953V554.357ZM191.953 556.768H194.364V559.179H191.953V556.768ZM194.364 554.357H196.775V556.768H194.364V554.357ZM194.364 551.946H196.775V554.357H194.364V551.946ZM194.364 549.536H196.775V551.946H194.364V549.536ZM194.364 547.125H196.775V549.536H194.364V547.125ZM194.364 544.714H196.775V547.125H194.364V544.714ZM194.364 556.768H196.775V559.179H194.364V556.768ZM194.364 559.179H196.775V561.589H194.364V559.179ZM194.364 561.589H196.775V564H194.364V561.589ZM191.953 561.589H194.364V564H191.953V561.589ZM191.953 559.179H194.364V561.589H191.953V559.179ZM210.178 544.714H212.589V547.125H210.178V544.714ZM207.768 544.714H210.178V547.125H207.768V544.714ZM207.768 547.125H210.178V549.536H207.768V547.125ZM210.178 547.125H212.589V549.536H210.178V547.125ZM212.589 544.714H215V547.125H212.589V544.714ZM215 544.714H217.411V547.125H215V544.714ZM217.411 544.714H219.821V547.125H217.411V544.714ZM217.411 547.125H219.821V549.536H217.411V547.125ZM215 547.125H217.411V549.536H215V547.125ZM217.411 551.946H219.821V554.357H217.411V551.946ZM219.821 547.125H222.232V549.536H219.821V547.125ZM219.821 549.536H222.232V551.946H219.821V549.536ZM219.821 551.946H222.232V554.357H219.821V551.946ZM219.821 554.357H222.232V556.768H219.821V554.357ZM219.821 556.768H222.232V559.179H219.821V556.768ZM219.821 559.179H222.232V561.589H219.821V559.179ZM217.411 559.179H219.821V561.589H217.411V559.179ZM217.411 556.768H219.821V559.179H217.411V556.768ZM217.411 554.357H219.821V556.768H217.411V554.357ZM217.411 549.536H219.821V551.946H217.411V549.536ZM215 559.179H217.411V561.589H215V559.179ZM217.411 561.589H219.821V564H217.411V561.589ZM215 561.589H217.411V564H215V561.589ZM212.589 561.589H215V564H212.589V561.589ZM210.178 561.589H212.589V564H210.178V561.589ZM207.768 561.589H210.178V564H207.768V561.589ZM207.768 559.179H210.178V561.589H207.768V559.179ZM210.178 559.179H212.589V561.589H210.178V559.179ZM207.768 556.768H210.178V559.179H207.768V556.768ZM205.357 559.179H207.768V561.589H205.357V559.179ZM205.357 556.768H207.768V559.179H205.357V556.768ZM205.357 554.357H207.768V556.768H205.357V554.357ZM205.357 551.946H207.768V554.357H205.357V551.946ZM205.357 549.536H207.768V551.946H205.357V549.536ZM205.357 547.125H207.768V549.536H205.357V547.125ZM207.768 549.536H210.178V551.946H207.768V549.536ZM207.768 551.946H210.178V554.357H207.768V551.946ZM207.768 554.357H210.178V556.768H207.768V554.357ZM212.589 559.179H215V561.589H212.589V559.179ZM212.589 547.125H215V549.536H212.589V547.125ZM235.642 559.179H238.053V561.589H235.642V559.179ZM235.642 561.589H238.053V564H235.642V561.589ZM233.231 561.589H235.642V564H233.231V561.589ZM233.231 559.179H235.642V561.589H233.231V559.179ZM230.82 561.589H233.231V564H230.82V561.589ZM230.82 559.179H233.231V561.589H230.82V559.179ZM228.41 559.179H230.82V561.589H228.41V559.179ZM228.41 556.768H230.82V559.179H228.41V556.768ZM228.41 554.357H230.82V556.768H228.41V554.357ZM228.41 551.946H230.82V554.357H228.41V551.946ZM228.41 549.536H230.82V551.946H228.41V549.536ZM228.41 547.125H230.82V549.536H228.41V547.125ZM230.82 554.357H233.231V556.768H230.82V554.357ZM230.82 556.768H233.231V559.179H230.82V556.768ZM230.82 551.946H233.231V554.357H230.82V551.946ZM230.82 549.536H233.231V551.946H230.82V549.536ZM230.82 539.893H233.231V542.304H230.82V539.893ZM230.82 542.304H233.231V544.714H230.82V542.304ZM230.82 544.714H233.231V547.125H230.82V544.714ZM230.82 547.125H233.231V549.536H230.82V547.125ZM228.41 544.714H230.82V547.125H228.41V544.714ZM225.999 547.125H228.41V549.536H225.999V547.125ZM233.231 547.125H235.642V549.536H233.231V547.125ZM235.642 547.125H238.053V549.536H235.642V547.125ZM228.41 542.304H230.82V544.714H228.41V542.304ZM225.999 549.536H228.41V551.946H225.999V549.536ZM233.231 549.536H235.642V551.946H233.231V549.536ZM235.642 549.536H238.053V551.946H235.642V549.536ZM256.271 564H253.861V561.589H256.271V564ZM256.271 561.589H253.861V559.179H256.271V561.589ZM253.861 561.589H251.45V559.179H253.861V561.589ZM251.45 564H249.039V561.589H251.45V564ZM249.039 564H246.628V561.589H249.039V564ZM246.628 564H244.218V561.589H246.628V564ZM246.628 561.589H244.218V559.179H246.628V561.589ZM249.039 561.589H246.628V559.179H249.039V561.589ZM244.218 561.589H241.807V559.179H244.218V561.589ZM244.218 559.179H241.807V556.768H244.218V559.179ZM244.218 549.536H241.807V547.125H244.218V549.536ZM246.628 549.536H244.218V547.125H246.628V549.536ZM246.628 559.179H244.218V556.768H246.628V559.179ZM249.039 549.536H246.628V547.125H249.039V549.536ZM246.628 547.125H244.218V544.714H246.628V547.125ZM249.039 547.125H246.628V544.714H249.039V547.125ZM251.45 547.125H249.039V544.714H251.45V547.125ZM253.861 547.125H251.45V544.714H253.861V547.125ZM256.271 547.125H253.861V544.714H256.271V547.125ZM256.271 549.536H253.861V547.125H256.271V549.536ZM253.861 549.536H251.45V547.125H253.861V549.536ZM256.271 551.946H253.861V549.536H256.271V551.946ZM258.682 549.536H256.271V547.125H258.682V549.536ZM258.682 551.946H256.271V549.536H258.682V551.946ZM258.682 554.357H256.271V551.946H258.682V554.357ZM258.682 556.768H256.271V554.357H258.682V556.768ZM258.682 559.179H256.271V556.768H258.682V559.179ZM258.682 561.589H256.271V559.179H258.682V561.589ZM256.271 559.179H253.861V556.768H256.271V559.179ZM256.271 556.768H253.861V554.357H256.271V556.768ZM256.271 554.357H253.861V551.946H256.271V554.357ZM251.45 549.536H249.039V547.125H251.45V549.536ZM251.45 561.589H249.039V559.179H251.45V561.589ZM256.271 561.589H258.682V564H256.271V561.589ZM251.45 551.946H253.861V554.357H251.45V551.946ZM249.039 551.946H251.45V554.357H249.039V551.946ZM246.628 551.946H249.039V554.357H246.628V551.946ZM244.218 551.946H246.628V554.357H244.218V551.946ZM241.807 554.357H244.218V556.768H241.807V554.357ZM244.218 554.357H246.628V556.768H244.218V554.357ZM251.45 554.357H253.861V556.768H251.45V554.357ZM249.039 554.357H251.45V556.768H249.039V554.357ZM246.628 554.357H249.039V556.768H246.628V554.357ZM262.449 539.893H264.86V542.304H262.449V539.893ZM264.86 539.893H267.27V542.304H264.86V539.893ZM264.86 542.304H267.27V544.714H264.86V542.304ZM264.86 544.714H267.27V547.125H264.86V544.714ZM264.86 547.125H267.27V549.536H264.86V547.125ZM264.86 549.536H267.27V551.946H264.86V549.536ZM264.86 551.946H267.27V554.357H264.86V551.946ZM262.449 551.946H264.86V554.357H262.449V551.946ZM262.449 554.357H264.86V556.768H262.449V554.357ZM262.449 556.768H264.86V559.179H262.449V556.768ZM262.449 559.179H264.86V561.589H262.449V559.179ZM262.449 561.589H264.86V564H262.449V561.589ZM264.86 561.589H267.27V564H264.86V561.589ZM264.86 559.179H267.27V561.589H264.86V559.179ZM264.86 556.768H267.27V559.179H264.86V556.768ZM264.86 554.357H267.27V556.768H264.86V554.357ZM262.449 549.536H264.86V551.946H262.449V549.536ZM262.449 547.125H264.86V549.536H262.449V547.125ZM262.449 544.714H264.86V547.125H262.449V544.714ZM262.449 542.304H264.86V544.714H262.449V542.304ZM284.435 542.304H286.845V544.714H284.435V542.304ZM294.078 542.304H296.488V544.714H294.078V542.304ZM294.078 544.714H296.488V547.125H294.078V544.714ZM296.488 542.304H298.899V544.714H296.488V542.304ZM296.488 544.714H298.899V547.125H296.488V544.714ZM296.488 547.125H298.899V549.536H296.488V547.125ZM296.488 549.536H298.899V551.946H296.488V549.536ZM296.488 551.946H298.899V554.357H296.488V551.946ZM296.488 554.357H298.899V556.768H296.488V554.357ZM296.488 556.768H298.899V559.179H296.488V556.768ZM296.488 559.179H298.899V561.589H296.488V559.179ZM294.078 559.179H296.488V561.589H294.078V559.179ZM294.078 556.768H296.488V559.179H294.078V556.768ZM294.078 554.357H296.488V556.768H294.078V554.357ZM294.078 551.946H296.488V554.357H294.078V551.946ZM294.078 549.536H296.488V551.946H294.078V549.536ZM294.078 547.125H296.488V549.536H294.078V547.125ZM291.667 556.768H294.078V559.179H291.667V556.768ZM291.667 559.179H294.078V561.589H291.667V559.179ZM294.078 561.589H296.488V564H294.078V561.589ZM291.667 561.589H294.078V564H291.667V561.589ZM289.256 561.589H291.667V564H289.256V561.589ZM289.256 559.179H291.667V561.589H289.256V559.179ZM286.845 561.589H289.256V564H286.845V561.589ZM284.435 561.589H286.845V564H284.435V561.589ZM284.435 559.179H286.845V561.589H284.435V559.179ZM286.845 559.179H289.256V561.589H286.845V559.179ZM286.845 556.768H289.256V559.179H286.845V556.768ZM284.435 556.768H286.845V559.179H284.435V556.768ZM282.024 559.179H284.435V561.589H282.024V559.179ZM282.024 556.768H284.435V559.179H282.024V556.768ZM282.024 554.357H284.435V556.768H282.024V554.357ZM282.024 551.946H284.435V554.357H282.024V551.946ZM282.024 549.536H284.435V551.946H282.024V549.536ZM282.024 547.125H284.435V549.536H282.024V547.125ZM282.024 544.714H284.435V547.125H282.024V544.714ZM284.435 544.714H286.845V547.125H284.435V544.714ZM282.024 542.304H284.435V544.714H282.024V542.304ZM284.435 547.125H286.845V549.536H284.435V547.125ZM284.435 549.536H286.845V551.946H284.435V549.536ZM284.435 551.946H286.845V554.357H284.435V551.946ZM284.435 554.357H286.845V556.768H284.435V554.357ZM282.024 539.893H284.435V542.304H282.024V539.893ZM284.435 539.893H286.845V542.304H284.435V539.893ZM294.078 539.893H296.488V542.304H294.078V539.893ZM296.488 539.893H298.899V542.304H296.488V539.893ZM302.666 547.125H305.077V549.536H302.666V547.125ZM305.077 549.536H307.487V551.946H305.077V549.536ZM302.666 549.536H305.077V551.946H302.666V549.536ZM302.666 551.946H305.077V554.357H302.666V551.946ZM305.077 551.946H307.487V554.357H305.077V551.946ZM305.077 554.357H307.487V556.768H305.077V554.357ZM307.487 554.357H309.898V556.768H307.487V554.357ZM309.898 554.357H312.309V556.768H309.898V554.357ZM312.309 551.946H314.72V554.357H312.309V551.946ZM309.898 551.946H312.309V554.357H309.898V551.946ZM307.487 551.946H309.898V554.357H307.487V551.946ZM312.309 554.357H314.72V556.768H312.309V554.357ZM314.72 554.357H317.13V556.768H314.72V554.357ZM314.72 556.768H317.13V559.179H314.72V556.768ZM312.309 556.768H314.72V559.179H312.309V556.768ZM312.309 559.179H314.72V561.589H312.309V559.179ZM314.72 559.179H317.13V561.589H314.72V559.179ZM312.309 561.589H314.72V564H312.309V561.589ZM309.898 559.179H312.309V561.589H309.898V559.179ZM307.487 559.179H309.898V561.589H307.487V559.179ZM305.077 559.179H307.487V561.589H305.077V559.179ZM302.666 559.179H305.077V561.589H302.666V559.179ZM305.077 561.589H307.487V564H305.077V561.589ZM307.487 561.589H309.898V564H307.487V561.589ZM309.898 561.589H312.309V564H309.898V561.589ZM314.72 547.125H317.13V549.536H314.72V547.125ZM312.309 547.125H314.72V549.536H312.309V547.125ZM312.309 544.714H314.72V547.125H312.309V544.714ZM309.898 544.714H312.309V547.125H309.898V544.714ZM307.487 544.714H309.898V547.125H307.487V544.714ZM305.077 544.714H307.487V547.125H305.077V544.714ZM305.077 547.125H307.487V549.536H305.077V547.125ZM307.487 547.125H309.898V549.536H307.487V547.125ZM309.898 547.125H312.309V549.536H309.898V547.125ZM325.712 544.714H328.123V547.125H325.712V544.714ZM323.302 544.714H325.712V547.125H323.302V544.714ZM323.302 547.125H325.712V549.536H323.302V547.125ZM325.712 547.125H328.123V549.536H325.712V547.125ZM328.123 544.714H330.534V547.125H328.123V544.714ZM330.534 544.714H332.945V547.125H330.534V544.714ZM332.945 544.714H335.355V547.125H332.945V544.714ZM332.945 547.125H335.355V549.536H332.945V547.125ZM330.534 547.125H332.945V549.536H330.534V547.125ZM335.355 547.125H337.766V549.536H335.355V547.125ZM335.355 549.536H337.766V551.946H335.355V549.536ZM335.355 559.179H337.766V561.589H335.355V559.179ZM332.945 559.179H335.355V561.589H332.945V559.179ZM332.945 549.536H335.355V551.946H332.945V549.536ZM330.534 559.179H332.945V561.589H330.534V559.179ZM332.945 561.589H335.355V564H332.945V561.589ZM330.534 561.589H332.945V564H330.534V561.589ZM328.123 561.589H330.534V564H328.123V561.589ZM325.712 561.589H328.123V564H325.712V561.589ZM323.302 561.589H325.712V564H323.302V561.589ZM323.302 559.179H325.712V561.589H323.302V559.179ZM325.712 559.179H328.123V561.589H325.712V559.179ZM323.302 556.768H325.712V559.179H323.302V556.768ZM320.891 559.179H323.302V561.589H320.891V559.179ZM320.891 556.768H323.302V559.179H320.891V556.768ZM320.891 554.357H323.302V556.768H320.891V554.357ZM320.891 551.946H323.302V554.357H320.891V551.946ZM320.891 549.536H323.302V551.946H320.891V549.536ZM320.891 547.125H323.302V549.536H320.891V547.125ZM323.302 549.536H325.712V551.946H323.302V549.536ZM323.302 551.946H325.712V554.357H323.302V551.946ZM323.302 554.357H325.712V556.768H323.302V554.357ZM328.123 559.179H330.534V561.589H328.123V559.179ZM328.123 547.125H330.534V549.536H328.123V547.125ZM332.945 551.946H335.355V554.357H332.945V551.946ZM335.355 551.946H337.766V554.357H335.355V551.946ZM325.712 554.357H328.123V556.768H325.712V554.357ZM328.123 554.357H330.534V556.768H328.123V554.357ZM330.534 554.357H332.945V556.768H330.534V554.357ZM332.945 554.357H335.355V556.768H332.945V554.357ZM335.355 554.357H337.766V556.768H335.355V554.357ZM330.534 551.946H332.945V554.357H330.534V551.946ZM328.123 551.946H330.534V554.357H328.123V551.946ZM325.712 551.946H328.123V554.357H325.712V551.946ZM341.533 547.125H343.944V549.536H341.533V547.125ZM341.533 544.714H343.944V547.125H341.533V544.714ZM343.944 544.714H346.354V547.125H343.944V544.714ZM343.944 547.125H346.354V549.536H343.944V547.125ZM343.944 549.536H346.354V551.946H343.944V549.536ZM343.944 551.946H346.354V554.357H343.944V551.946ZM343.944 554.357H346.354V556.768H343.944V554.357ZM341.533 554.357H343.944V556.768H341.533V554.357ZM341.533 551.946H343.944V554.357H341.533V551.946ZM341.533 549.536H343.944V551.946H341.533V549.536ZM341.533 556.768H343.944V559.179H341.533V556.768ZM343.944 556.768H346.354V559.179H343.944V556.768ZM343.944 559.179H346.354V561.589H343.944V559.179ZM343.944 561.589H346.354V564H343.944V561.589ZM341.533 561.589H343.944V564H341.533V561.589ZM341.533 559.179H343.944V561.589H341.533V559.179ZM346.354 547.125H348.765V549.536H346.354V547.125ZM348.765 547.125H351.176V549.536H348.765V547.125ZM351.176 547.125H353.587V549.536H351.176V547.125ZM351.176 544.714H353.587V547.125H351.176V544.714ZM348.765 544.714H351.176V547.125H348.765V544.714ZM346.354 549.536H348.765V551.946H346.354V549.536ZM353.587 547.125H355.997V549.536H353.587V547.125ZM351.176 549.536H353.587V551.946H351.176V549.536ZM359.758 547.125H362.169V549.536H359.758V547.125ZM362.169 549.536H364.579V551.946H362.169V549.536ZM359.758 549.536H362.169V551.946H359.758V549.536ZM359.758 551.946H362.169V554.357H359.758V551.946ZM362.169 551.946H364.579V554.357H362.169V551.946ZM362.169 554.357H364.579V556.768H362.169V554.357ZM364.579 554.357H366.99V556.768H364.579V554.357ZM366.99 554.357H369.401V556.768H366.99V554.357ZM369.401 551.946H371.812V554.357H369.401V551.946ZM366.99 551.946H369.401V554.357H366.99V551.946ZM364.579 551.946H366.99V554.357H364.579V551.946ZM369.401 554.357H371.812V556.768H369.401V554.357ZM371.812 554.357H374.222V556.768H371.812V554.357ZM371.812 556.768H374.222V559.179H371.812V556.768ZM369.401 556.768H371.812V559.179H369.401V556.768ZM369.401 559.179H371.812V561.589H369.401V559.179ZM371.812 559.179H374.222V561.589H371.812V559.179ZM369.401 561.589H371.812V564H369.401V561.589ZM366.99 559.179H369.401V561.589H366.99V559.179ZM364.579 559.179H366.99V561.589H364.579V559.179ZM362.169 559.179H364.579V561.589H362.169V559.179ZM359.758 559.179H362.169V561.589H359.758V559.179ZM362.169 561.589H364.579V564H362.169V561.589ZM364.579 561.589H366.99V564H364.579V561.589ZM366.99 561.589H369.401V564H366.99V561.589ZM371.812 547.125H374.222V549.536H371.812V547.125ZM369.401 547.125H371.812V549.536H369.401V547.125ZM369.401 544.714H371.812V547.125H369.401V544.714ZM366.99 544.714H369.401V547.125H366.99V544.714ZM364.579 544.714H366.99V547.125H364.579V544.714ZM362.169 544.714H364.579V547.125H362.169V544.714ZM362.169 547.125H364.579V549.536H362.169V547.125ZM364.579 547.125H366.99V549.536H364.579V547.125ZM366.99 547.125H369.401V549.536H366.99V547.125Z" fill="#F0F3F4"/>
<path d="M551.821 549.536H559.054V554.357H551.821V564H547V539.893H561.464V544.714H551.821V549.536ZM572.457 556.768H570.046V554.357H567.636V551.946H565.225V539.893H570.046V549.536H572.457V551.946H577.279V549.536H579.689V539.893H584.511V551.946H582.1V554.357H579.689V556.768H577.279V564H572.457V556.768ZM599.258 556.768H601.669V554.357H604.079V551.946H606.49V549.536H608.901V547.125H611.312V544.714H604.079V547.125H599.258V542.304H601.669V539.893H613.722V542.304H616.133V549.536H613.722V551.946H611.312V554.357H608.901V556.768H606.49V559.179H616.133V564H599.258V556.768ZM619.9 542.304H622.311V539.893H631.954V542.304H634.364V561.589H631.954V564H622.311V561.589H619.9V542.304ZM629.543 544.714H624.721V559.179H629.543V544.714ZM638.125 556.768H640.536V554.357H642.946V551.946H645.357V549.536H647.768V547.125H650.179V544.714H642.946V547.125H638.125V542.304H640.536V539.893H652.589V542.304H655V549.536H652.589V551.946H650.179V554.357H647.768V556.768H645.357V559.179H655V564H638.125V556.768ZM665.999 547.125V549.536H663.588V554.357H668.41V547.125H665.999ZM658.767 549.536H661.178V547.125H663.588V544.714H665.999V542.304H668.41V539.893H673.231V564H668.41V559.179H658.767V549.536ZM692.787 544.714H687.966V539.893H702.43V544.714H697.609V564H692.787V544.714ZM706.191 547.125H708.602V544.714H720.655V547.125H723.066V561.589H720.655V564H708.602V561.589H706.191V547.125ZM718.245 549.536H711.012V559.179H718.245V549.536ZM726.833 547.125H729.244V542.304H731.654V539.893H734.065V547.125H738.887V551.946H734.065V559.179H738.887V564H731.654V561.589H729.244V551.946H726.833V547.125ZM745.052 561.589H742.641V554.357H745.052V551.946H754.695V549.536H742.641V547.125H745.052V544.714H757.105V547.125H759.516V564H754.695V561.589H752.284V564H745.052V561.589ZM747.462 559.179H754.695V556.768H747.462V559.179ZM763.283 539.893H768.104V564H763.283V539.893ZM782.858 539.893H797.322V542.304H799.733V554.357H797.322V556.768H787.679V564H782.858V539.893ZM794.912 544.714H787.679V551.946H794.912V544.714ZM805.911 561.589H803.5V554.357H805.911V551.946H815.554V549.536H803.5V547.125H805.911V544.714H817.964V547.125H820.375V564H815.554V561.589H813.143V564H805.911V561.589ZM808.321 559.179H815.554V556.768H808.321V559.179ZM824.142 539.893H828.963V544.714H824.142V539.893ZM824.142 547.125H828.963V564H824.142V547.125ZM844.797 544.714V539.893H849.618V564H844.797V561.589H842.386V564H835.154V561.589H832.743V547.125H835.154V544.714H844.797ZM844.797 559.179V549.536H837.564V559.179H844.797ZM876.413 556.768H881.234V561.589H878.823V564H866.77V561.589H864.359V542.304H866.77V539.893H878.823V542.304H881.234V547.125H876.413V544.714H871.591V547.125H869.18V556.768H871.591V559.179H876.413V556.768ZM894.644 549.536H892.233V551.946H889.822V564H885.001V544.714H889.822V547.125H892.233V544.714H897.055V547.125H899.465V549.536H897.055V551.946H894.644V549.536ZM903.226 547.125H905.637V544.714H917.69V547.125H920.101V556.768H908.047V559.179H920.101V561.589H917.69V564H905.637V561.589H903.226V547.125ZM908.047 551.946H915.28V549.536H908.047V551.946ZM926.279 561.589H923.868V554.357H926.279V551.946H935.922V549.536H923.868V547.125H926.279V544.714H938.332V547.125H940.743V564H935.922V561.589H933.511V564H926.279V561.589ZM928.689 559.179H935.922V556.768H928.689V559.179ZM944.51 547.125H946.921V542.304H949.331V539.893H951.742V547.125H956.564V551.946H951.742V559.179H956.564V564H949.331V561.589H946.921V551.946H944.51V547.125ZM960.318 547.125H962.729V544.714H974.782V547.125H977.193V561.589H974.782V564H962.729V561.589H960.318V547.125ZM972.372 549.536H965.139V559.179H972.372V549.536ZM990.603 549.536H988.192V551.946H985.781V564H980.96V544.714H985.781V547.125H988.192V544.714H993.014V547.125H995.424V549.536H993.014V551.946H990.603V549.536ZM1001.6 561.589H999.185V559.179H1008.83V556.768H1001.6V554.357H999.185V547.125H1001.6V544.714H1011.24V547.125H1013.65V549.536H1004.01V551.946H1011.24V554.357H1013.65V561.589H1011.24V564H1001.6V561.589Z" fill="#F0F3F4"/>
<defs>
<linearGradient id="paint0_linear_2_18" x1="392" y1="0" x2="392" y2="452" gradientUnits="userSpaceOnUse">
<stop stop-color="#1783FB"/>
<stop offset="1" stop-color="#0E4E95"/>
</linearGradient>
<linearGradient id="paint1_linear_2_18" x1="12.5" y1="538" x2="12.5" y2="563" gradientUnits="userSpaceOnUse">
<stop stop-color="#1783FB"/>
<stop offset="1" stop-color="#0E4E95"/>
</linearGradient>
<linearGradient id="paint2_linear_2_18" x1="502.5" y1="538" x2="502.5" y2="563" gradientUnits="userSpaceOnUse">
<stop stop-color="#E02121"/>
<stop offset="1" stop-color="#7A1212"/>
</linearGradient>
</defs>
</svg>
