<svg width="32" height="32" viewBox="0 0 32 32" fill="none" xmlns="http://www.w3.org/2000/svg">
  <!-- Side accent lines -->
  <path d="M10 15L8 16L10 17M22 15L24 16L22 17" stroke="#1783fb" stroke-width="1.5" stroke-linecap="round" opacity="0.6"/>
  
  <!-- Vertical eye shape - clean almond shape -->
  <path d="M16 11C19 11 21 13.5 21 16C21 18.5 19 21 16 21C13 21 11 18.5 11 16C11 13.5 13 11 16 11Z" fill="#1783fb" opacity="0.1" stroke="#1783fb" stroke-width="2" stroke-linecap="round"/>
  
  <!-- Main pupil circle -->
  <circle cx="16" cy="16" r="3.5" fill="#1783fb"/>
  
  <!-- Inner iris -->
  <circle cx="16" cy="16" r="2.2" fill="#ffffff"/>
  
  <!-- Center pupil -->
  <circle cx="16" cy="16" r="1.3" fill="#1783fb"/>
  
  <!-- Highlight -->
  <circle cx="17" cy="15" r="0.5" fill="#ffffff"/>
  
  <!-- Downward directional lines -->
  <path d="M12 24L13 26M16 25L16 28M20 24L19 26" stroke="#1783fb" stroke-width="2" stroke-linecap="round"/>
</svg>